{"glyphs":{"0":{"ha":1830,"x_min":47,"x_max":1800,"o":"m 1173 897 q 952 1049 1123 1046 q 711 958 802 1058 q 665 701 611 829 q 885 540 739 536 q 1154 729 1069 555 q 1173 897 1192 819 m 57 857 q 1033 1697 172 1720 q 1474 1554 1283 1696 l 1443 1503 l 1444 1503 l 1503 1532 q 1644 1387 1579 1470 q 1779 989 1758 1204 q 1724 517 1800 759 q 1462 111 1627 255 q 1167 -80 1317 -18 l 1093 -39 l 1093 -40 l 1044 -119 q 364 43 716 -195 q 87 463 170 197 q 48 766 47 614 l 142 810 l 142 810 l 57 857 z "},"1":{"ha":1340,"x_min":34,"x_max":1249,"o":"m 1247 966 q 1238 -144 1244 391 q 572 -142 887 -180 q 572 119 572 -10 l 635 149 l 635 149 l 573 183 q 598 947 578 574 l 406 736 q 34 1032 218 868 l 621 1691 q 1249 1687 908 1699 q 1248 1103 1249 1390 l 1137 1029 l 1137 1029 l 1247 966 z "},"2":{"ha":1714,"x_min":41,"x_max":1637,"o":"m 1463 1473 q 1600 1101 1600 1314 q 1145 398 1605 737 q 1630 395 1367 401 q 1618 -161 1637 54 q 1055 -153 1339 -154 l 1038 -72 l 970 -153 q 135 -163 569 -152 q 130 342 111 59 q 434 486 300 415 l 527 386 l 492 517 q 904 876 838 709 q 937 992 938 941 l 937 1001 q 758 1141 933 1162 q 563 773 581 1086 q 63 968 388 842 q 129 1308 41 1115 q 898 1691 342 1674 q 1287 1620 1073 1706 q 1423 1515 1364 1571 l 1371 1430 l 1371 1430 l 1463 1473 z "},"3":{"ha":1517,"x_min":42,"x_max":1556,"o":"m 1413 1284 q 1326 1090 1411 1190 l 1121 890 q 1434 577 1362 732 q 1249 -62 1556 161 q 1118 -125 1189 -98 l 1037 -54 l 1008 -159 q 554 -182 812 -205 q 42 33 214 -148 q 264 455 131 232 q 848 418 840 170 q 406 610 804 608 q 398 878 401 713 l 482 956 l 570 891 l 526 998 l 673 1133 q 567 1202 723 1201 q 258 1090 387 1194 q 51 1494 138 1257 q 1060 1655 566 1826 q 1404 1352 1358 1512 l 1297 1303 l 1413 1284 z "},"4":{"ha":1460,"x_min":55,"x_max":1409,"o":"m 1407 627 q 1402 313 1409 468 l 1099 311 q 1099 -131 1088 70 q 530 -142 783 -156 q 530 48 528 -35 l 587 75 l 587 76 l 530 106 q 544 301 533 241 q 66 307 245 302 q 66 819 55 553 q 392 1211 233 1013 l 461 1216 l 460 1216 l 459 1295 q 795 1738 631 1514 q 1274 1395 1040 1602 q 806 849 1037 1089 q 1398 857 1008 828 q 1404 703 1402 780 l 1352 663 l 1352 663 l 1407 627 z "},"5":{"ha":1517,"x_min":20,"x_max":1603,"o":"m 1373 845 q 1423 753 1402 802 q 1102 -66 1603 244 q 535 -138 849 -193 q 20 86 205 -83 q 195 526 54 283 q 843 503 820 313 q 713 665 839 625 q 523 597 544 696 l 90 597 q 86 838 87 720 l 174 880 l 174 880 l 86 928 q 95 1709 84 1336 q 901 1698 493 1698 l 954 1651 l 954 1651 l 1001 1699 q 1334 1702 1166 1699 q 1336 1162 1344 1494 q 987 1166 1188 1176 l 981 1243 q 566 1242 836 1246 l 567 1090 q 814 1155 624 1162 q 1327 906 1180 1099 l 1283 806 l 1373 845 z "},"6":{"ha":1588,"x_min":-127,"x_max":1493,"o":"m 743 458 q 804 338 735 374 q 982 397 918 313 q 920 583 1044 524 q 743 458 748 600 m 1456 250 q 1241 -43 1402 71 q 327 6 806 -303 q 96 1126 -127 401 l 229 1188 l 229 1189 l 135 1240 q 153 1286 144 1263 q 459 1651 298 1554 q 1099 1723 747 1807 l 1124 1683 l 1124 1683 l 1165 1706 q 1443 1592 1299 1666 q 1415 1044 1438 1263 q 787 1147 987 1211 q 663 936 653 1081 q 1071 1011 776 1066 q 1473 576 1404 934 q 1470 307 1493 428 l 1408 273 l 1408 273 l 1456 250 z "},"7":{"ha":1726,"x_min":34,"x_max":1692,"o":"m 1034 236 q 821 -151 911 26 q 123 -139 470 -164 q 848 1163 493 593 l 46 1155 q 52 1704 34 1415 q 378 1702 214 1702 l 405 1605 l 465 1702 q 1675 1714 1040 1702 q 1668 1231 1692 1504 q 1070 298 1304 696 l 965 350 l 1034 236 z "},"8":{"ha":1683,"x_min":-116,"x_max":1638,"o":"m 745 1021 q 969 1065 888 968 q 899 1221 1013 1181 q 703 1146 768 1251 q 745 1021 692 1046 m 718 302 q 1017 346 897 227 q 948 551 1091 493 q 682 466 781 596 q 718 302 652 338 m 1533 636 q 1613 430 1587 551 q 1328 -41 1638 163 q 570 -134 954 -227 q 489 -115 528 -126 l 502 -18 l 424 -92 q 178 84 272 -32 q 291 787 -116 465 q 104 1130 125 909 l 203 1158 l 105 1213 q 350 1577 109 1395 q 1031 1718 652 1765 q 1539 1223 1502 1614 q 1280 819 1556 962 q 1503 678 1418 784 l 1455 600 l 1455 600 l 1533 636 z "},"9":{"ha":1811,"x_min":87,"x_max":1752,"o":"m 857 1132 q 802 1254 869 1215 q 621 1205 690 1285 q 673 1017 552 1083 q 857 1132 844 990 m 138 476 q 152 585 144 534 q 772 446 570 393 q 909 650 911 504 q 498 597 789 526 q 121 1055 170 694 q 388 1659 87 1474 q 1278 1572 827 1889 l 1220 1477 l 1221 1477 l 1328 1527 q 1457 293 1752 1076 l 1359 264 l 1360 264 l 1383 163 q 1072 -76 1266 9 q 132 39 663 -261 q 132 393 123 236 l 217 433 l 217 433 l 138 476 z "}," ":{"ha":555,"x_min":0,"x_max":0,"o":""}," ":{"ha":555,"x_min":0,"x_max":0,"o":""},"!":{"ha":791,"x_min":23,"x_max":733,"o":"m 692 1341 q 639 372 661 682 q 110 369 391 362 q 105 374 110 373 q 91 623 98 484 l 167 707 q 83 789 163 713 q 61 1664 70 1146 q 706 1670 412 1687 q 696 1432 701 1546 q 604 1388 608 1392 l 692 1341 m 146 -111 q 59 81 23 -37 q 218 218 103 178 q 465 251 332 257 q 583 222 546 237 q 707 33 733 161 q 595 -104 689 -39 q 440 -161 507 -153 q 220 -145 345 -182 q 221 -77 220 -90 q 146 -111 178 -96 z "},",":{"ha":724,"x_min":12,"x_max":736,"o":"m 382 328 q 676 31 650 303 q 238 -493 736 -296 q 182 -448 125 -524 q 369 -172 356 -366 q 34 -28 56 -188 q 81 199 12 88 q 382 328 186 351 z "},".":{"ha":752,"x_min":3,"x_max":722,"o":"m 571 236 q 695 47 722 175 q 584 -91 677 -25 q 429 -148 496 -139 q 198 -128 329 -169 q 47 94 3 -51 q 206 231 92 192 q 454 264 321 271 q 571 236 534 250 z "},":":{"ha":762,"x_min":3,"x_max":722,"o":"m 437 -146 q 429 -148 433 -147 q 198 -128 329 -169 q 47 94 3 -51 q 206 231 92 192 q 454 264 321 271 q 571 236 534 250 q 695 47 722 175 q 584 -91 677 -25 q 515 -124 548 -111 l 467 -98 l 467 -98 l 437 -146 m 49 617 q 206 751 94 712 q 454 784 321 790 q 571 755 534 770 q 695 566 722 694 q 584 429 677 494 q 429 372 496 380 q 198 391 329 351 q 39 560 41 454 l 100 589 l 100 589 l 49 617 z "},";":{"ha":759,"x_min":3,"x_max":756,"o":"m 699 632 q 695 604 698 618 q 584 467 677 532 q 429 410 496 418 q 198 429 329 389 q 47 652 3 507 q 206 789 92 749 q 454 822 321 828 q 571 793 534 808 q 687 699 660 758 l 627 666 l 627 665 l 699 632 m 79 -92 q 54 -28 59 -64 q 102 199 33 88 q 403 328 207 351 q 696 31 670 303 q 258 -493 756 -296 q 203 -448 145 -524 q 389 -172 376 -366 q 117 -127 199 -182 l 162 -53 l 161 -53 l 79 -92 z "},"?":{"ha":1453,"x_min":140,"x_max":1415,"o":"m 978 711 q 869 679 926 694 q 871 343 862 465 q 453 348 641 340 q 451 439 452 393 l 511 467 l 511 468 l 450 501 q 454 959 448 709 q 774 1013 643 961 q 882 1244 998 1105 q 445 1060 670 1439 q 140 1254 205 1205 q 663 1698 342 1647 l 685 1658 l 707 1704 q 1011 1665 848 1716 q 1396 1117 1415 1485 q 1069 747 1371 878 l 1017 775 l 1017 774 l 978 711 m 975 168 q 1000 47 1015 118 q 889 -91 983 -25 q 734 -148 801 -139 q 503 -128 634 -169 q 353 94 309 -51 q 511 231 397 192 q 759 264 626 271 q 876 236 840 250 q 950 194 921 218 l 918 142 l 919 142 l 975 168 z "},"A":{"ha":1723,"x_min":19,"x_max":1691,"o":"m 862 919 q 794 654 825 817 q 913 662 856 656 q 862 919 899 798 m 104 -116 q 19 -109 62 -112 l 332 806 l 430 828 l 359 899 l 463 1265 l 309 1275 l 410 1681 q 958 1674 696 1668 q 997 1592 994 1596 l 1041 1676 q 1208 1684 1126 1679 l 1503 570 l 1461 513 l 1529 487 l 1691 -135 q 1109 -185 1457 -133 l 1024 197 q 709 199 848 212 q 595 -177 628 -44 q 163 -122 389 -144 q 182 58 176 -29 q 104 -116 146 -8 z "},"B":{"ha":1716,"x_min":36,"x_max":1673,"o":"m 694 1013 q 977 1143 994 993 q 907 1221 970 1203 q 686 1206 792 1246 q 694 1013 685 1105 m 716 344 q 1070 486 1077 307 q 969 570 1055 553 q 711 549 849 596 q 716 344 709 433 m 50 1337 q 36 1594 43 1474 q 739 1693 224 1668 q 1112 1658 951 1697 l 1114 1563 l 1175 1640 q 1548 1327 1440 1552 q 1411 817 1672 1025 q 1672 449 1673 677 q 1539 114 1672 221 q 1392 16 1473 52 q 1160 -72 1263 -47 q 1067 1 1082 -12 q 1044 -99 1053 -58 q 676 -134 933 -126 q 204 -114 551 -134 q 201 269 203 99 l 265 313 l 201 351 q 197 1165 199 747 l 58 1139 q 53 1278 56 1210 l 194 1343 l 50 1337 z "},"C":{"ha":1386,"x_min":-7,"x_max":1341,"o":"m 570 -70 q 128 308 264 45 q 78 951 -7 582 q 328 1402 146 1193 l 420 1358 l 387 1450 q 1331 1718 713 1723 l 1336 1561 l 1179 1521 l 1330 1493 l 1335 962 q 819 929 990 1058 q 764 610 648 800 q 987 496 827 508 l 1021 384 l 1054 495 q 1341 546 1187 504 l 1333 -151 q 665 -101 941 -178 l 629 -31 l 629 -30 l 570 -70 z "},"D":{"ha":1754,"x_min":37,"x_max":1723,"o":"m 781 494 q 1070 580 953 494 q 1153 835 1177 662 q 743 1120 1113 1166 q 781 494 765 840 m 1016 1676 q 1461 1466 1286 1624 q 1718 736 1707 1246 q 1703 553 1723 696 q 1571 233 1681 400 q 1419 81 1496 147 l 1313 136 l 1367 45 q 844 -142 1134 -123 q 242 -123 420 -170 q 223 901 247 279 l 299 943 l 219 986 l 212 1135 l 68 1131 q 37 1623 43 1424 q 786 1701 307 1706 q 937 1689 865 1698 l 962 1619 l 962 1619 q 1016 1676 992 1651 z "},"E":{"ha":1442,"x_min":64,"x_max":1393,"o":"m 1370 55 q 1393 -124 1377 -22 q 614 -153 1028 -138 l 574 -67 l 545 -155 q 71 -174 302 -163 q 70 1201 77 564 l 191 1249 l 69 1283 q 64 1663 68 1489 q 751 1669 503 1665 l 788 1603 l 881 1670 q 1358 1679 1244 1674 q 1335 1120 1331 1350 l 949 1111 l 922 1166 l 881 1109 l 646 1105 l 652 955 l 1133 976 l 1151 545 q 673 513 966 526 l 677 380 q 1360 411 984 383 q 1365 136 1362 343 q 1262 87 1326 120 q 1370 55 1320 70 z "},"F":{"ha":1509,"x_min":17,"x_max":1475,"o":"m 1142 1685 l 1453 1691 q 1454 1049 1475 1198 q 781 1036 1104 1049 l 789 883 q 1166 892 1029 894 q 1145 385 1174 744 q 800 374 970 381 q 798 68 798 245 l 730 27 l 799 -18 q 801 -138 800 -77 q 232 -153 502 -170 q 218 644 224 -109 l 275 722 l 220 782 q 216 1049 216 926 l 60 1038 q 54 1663 17 1432 l 987 1681 l 1061 1596 l 1061 1596 q 1142 1685 1109 1649 z "},"G":{"ha":1702,"x_min":-84,"x_max":1590,"o":"m 490 -51 q 119 334 251 52 q 241 1312 -84 842 l 307 1307 l 307 1308 q 281 1367 292 1341 q 296 1386 289 1377 q 1525 1665 714 1803 q 1517 1044 1549 1329 q 1021 1082 1319 1107 q 673 833 741 1023 q 661 747 664 788 q 593 714 597 717 l 660 679 q 822 419 669 492 q 1118 471 1020 383 q 950 467 1066 481 l 947 812 q 1589 826 1431 814 q 1586 258 1590 524 q 1474 205 1478 208 l 1584 146 q 1576 -143 1581 -5 q 1065 -157 1405 -168 l 1074 -77 q 566 -78 782 -141 q 568 -16 567 -29 q 490 -51 524 -36 z "},"H":{"ha":1518,"x_min":81,"x_max":1452,"o":"m 657 110 q 663 -139 657 11 q 81 -140 386 -132 q 92 892 85 414 l 167 976 q 94 1048 163 981 q 107 1662 100 1373 q 488 1679 311 1676 l 517 1536 l 552 1681 q 688 1680 622 1681 q 678 940 692 1464 l 850 959 q 877 1649 851 1038 q 1452 1681 1156 1668 q 1442 1324 1447 1497 q 1371 1290 1375 1293 l 1441 1253 q 1429 -140 1422 448 q 822 -138 1172 -151 q 836 408 844 229 l 667 400 q 658 193 659 315 q 595 163 598 166 l 657 110 z "},"I":{"ha":884,"x_min":87,"x_max":801,"o":"m 189 1306 q 94 1350 184 1310 q 87 1657 90 1502 q 591 1666 340 1676 l 616 1531 l 644 1664 q 801 1653 723 1659 q 777 199 801 745 l 699 157 q 772 124 703 154 q 755 -151 765 -28 q 576 -157 746 -153 q 135 -153 406 -161 q 96 1255 115 504 l 189 1306 z "},"J":{"ha":1671,"x_min":31,"x_max":1632,"o":"m 1135 1670 q 1587 1693 1398 1689 q 1632 952 1622 1374 l 1632 923 q 1548 884 1552 887 l 1628 841 q 1213 11 1594 271 q 749 -144 1005 -131 q 387 -98 540 -152 q 312 -60 347 -79 q 313 8 313 -5 q 252 -20 280 -7 q 176 58 205 16 q 56 336 91 174 q 69 724 31 506 q 300 1146 140 1022 l 304 1145 q 696 897 509 1035 q 591 665 611 791 q 718 441 554 453 q 863 481 800 444 l 918 452 l 918 453 q 918 523 918 492 q 925 530 922 526 q 1005 1189 1034 591 l 854 1177 q 825 1647 831 1377 q 1025 1663 929 1655 l 1097 1604 l 1097 1605 q 1135 1670 1118 1641 z "},"K":{"ha":1573,"x_min":35,"x_max":1532,"o":"m 1008 1501 q 1123 1603 1065 1550 l 1532 1245 q 946 780 1171 954 q 1520 219 1206 479 q 1057 -165 1274 -35 q 680 280 874 41 q 670 91 673 144 q 612 49 616 52 l 669 3 q 671 -136 669 -98 q 35 -137 334 -191 q 39 403 35 105 q 153 445 149 442 l 40 491 q 70 1654 48 996 q 382 1692 235 1682 q 413 1626 410 1630 l 450 1695 q 666 1693 564 1700 q 675 1244 684 1569 q 941 1444 805 1331 l 1007 1409 l 1007 1409 q 1008 1501 1008 1462 z "},"L":{"ha":1233,"x_min":55,"x_max":1220,"o":"m 660 1340 l 659 397 q 1209 410 920 403 q 1175 -140 1220 95 q 913 -158 1055 -151 q 875 -98 882 -110 q 834 -161 852 -133 q 55 -159 500 -173 q 62 209 59 35 l 153 258 l 153 259 q 64 320 99 296 q 73 1652 81 1320 q 661 1670 402 1678 l 661 1423 q 578 1383 582 1387 l 660 1340 z "},"M":{"ha":2118,"x_min":64,"x_max":2092,"o":"m 90 1390 l 116 1660 q 857 1675 601 1664 q 1095 1345 966 1504 q 1339 1672 1223 1495 q 1459 1670 1396 1671 q 1495 1594 1493 1598 l 1535 1668 q 1925 1662 1709 1665 q 2045 443 2002 897 q 1957 402 1961 406 l 2053 351 q 2092 -99 2082 43 q 1493 -168 1837 -150 q 1428 648 1461 195 l 1063 307 q 922 456 997 374 l 937 516 l 876 502 q 752 640 807 576 q 703 -163 719 172 l 508 -155 l 467 89 l 414 -151 l 75 -138 l 178 1114 l 64 1128 l 79 1280 l 167 1313 q 90 1390 163 1318 z "},"N":{"ha":1787,"x_min":51,"x_max":1730,"o":"m 526 1686 l 648 1694 q 1135 1061 810 1409 q 1113 1655 1126 1232 q 1730 1674 1442 1667 q 1729 1563 1730 1618 q 1616 1509 1621 1512 l 1729 1449 q 1710 -149 1724 566 q 1298 -160 1546 -149 q 1036 183 1180 6 q 1038 325 1038 303 q 951 286 989 302 q 713 559 840 420 l 720 -160 q 156 -166 441 -149 q 161 1161 172 374 l 51 1152 l 58 1653 l 434 1679 q 475 1590 473 1595 l 526 1686 z "},"O":{"ha":1847,"x_min":32,"x_max":1787,"o":"m 659 642 q 880 490 709 493 q 1121 581 1030 481 q 1167 838 1221 709 q 947 999 1093 1002 q 678 810 762 984 q 659 642 640 720 m 1700 1215 q 1744 1097 1725 1159 q 1783 777 1787 937 q 799 -137 1695 -161 q 433 -44 596 -136 q 434 39 433 24 q 358 5 391 20 q 188 173 266 73 q 53 570 74 356 q 108 1042 32 801 q 370 1449 205 1305 q 386 1463 378 1456 l 486 1447 l 486 1448 q 491 1544 489 1505 q 1468 1516 954 1864 q 1653 1303 1579 1428 q 1590 1208 1592 1213 l 1700 1215 z "},"P":{"ha":1421,"x_min":-37,"x_max":1387,"o":"m 607 842 q 876 994 858 855 q 815 1137 878 1093 q 602 1157 701 1204 q 607 842 583 998 m 694 1695 q 930 1662 813 1686 q 1385 1084 1334 1542 q 1105 490 1387 656 q 1007 534 1065 509 q 1008 444 1008 518 q 844 401 934 416 q 632 369 714 380 q 658 -154 635 79 q 59 -172 339 -167 q 56 53 57 -57 l 146 101 q 56 144 142 104 q 68 1131 52 708 l -37 1123 l -33 1617 q 626 1699 303 1712 q 659 1630 656 1633 l 694 1695 z "},"Q":{"ha":1847,"x_min":32,"x_max":1811,"o":"m 659 642 q 880 490 709 493 q 1121 581 1030 481 q 1167 838 1221 709 q 947 999 1093 1002 q 678 810 762 984 q 659 642 640 720 m 412 -32 q 188 173 288 44 q 53 570 74 356 q 108 1042 32 801 q 370 1449 205 1305 q 461 1523 415 1489 l 546 1478 l 546 1479 q 547 1581 547 1539 q 1289 1617 903 1794 q 1293 1546 1292 1550 l 1346 1590 q 1468 1516 1407 1558 q 1744 1097 1662 1362 q 1783 777 1787 937 q 1646 279 1755 479 l 1711 213 q 1699 142 1699 147 l 1753 170 l 1811 112 q 1508 -206 1661 -84 l 1296 -51 q 799 -137 1090 -144 q 513 -83 644 -136 q 514 15 513 -2 q 412 -32 453 -13 z "},"R":{"ha":1550,"x_min":24,"x_max":1573,"o":"m 690 1145 q 687 840 680 1002 l 784 869 q 950 1050 951 949 q 865 1145 948 1134 q 690 1145 800 1168 m 522 1694 q 882 1691 705 1706 q 1267 1548 1093 1663 q 1502 1284 1449 1427 q 1397 764 1573 1007 q 1318 782 1333 779 q 1338 692 1329 730 q 1136 514 1255 600 q 1525 6 1317 254 l 1044 -203 l 686 267 q 684 -157 684 35 q 363 -152 522 -159 l 317 33 q 271 -147 310 -61 q 106 -136 188 -142 q 115 347 106 5 l 191 388 q 117 423 187 391 q 138 1122 124 710 l 24 1112 q 44 1622 34 1390 q 397 1683 223 1664 q 492 1622 486 1624 l 522 1694 z "},"S":{"ha":1544,"x_min":10,"x_max":1544,"o":"m 661 -163 q 107 -26 389 -147 q 126 508 115 241 q 788 329 489 301 q 938 461 940 357 q 785 528 939 542 q 562 534 623 524 q 424 551 510 532 q 298 586 355 564 q 299 659 298 645 q 220 623 254 639 q 217 625 218 624 q 87 758 136 669 q 36 924 47 823 q 226 1509 10 1276 q 335 1596 276 1558 l 393 1565 l 393 1565 q 394 1630 394 1600 q 1388 1594 755 1811 l 1382 1335 l 1268 1324 l 1381 1276 l 1377 1055 q 1033 1183 1204 1147 q 625 1071 641 1266 q 880 970 623 933 q 1259 939 1105 997 q 1472 751 1413 882 q 1487 339 1544 516 q 834 -161 1331 -104 q 760 -165 797 -164 l 709 -37 l 709 -37 l 661 -163 z "},"T":{"ha":1788,"x_min":58,"x_max":1735,"o":"m 1717 1182 q 1702 1059 1711 1119 q 1174 1051 1426 1070 l 1189 -134 q 554 -144 856 -150 l 566 255 l 648 334 q 570 401 644 339 l 588 1055 q 81 1044 328 1057 q 81 1691 58 1360 q 579 1684 345 1686 l 648 1619 l 665 1683 q 1714 1687 1183 1680 q 1723 1250 1735 1455 l 1551 1220 l 1717 1182 z "},"U":{"ha":1785,"x_min":46,"x_max":1709,"o":"m 54 1441 q 68 1639 60 1542 q 831 1672 512 1690 q 772 1192 804 1556 q 800 649 741 827 q 924 543 843 549 q 1052 643 1023 545 q 1067 1674 1126 988 l 1200 1672 l 1232 1626 l 1232 1627 q 1255 1671 1244 1651 l 1657 1664 q 1708 1086 1701 1355 q 1632 1021 1636 1026 l 1709 946 q 1699 720 1708 829 q 1137 -138 1635 48 q 662 -155 909 -212 q 634 -145 648 -151 q 635 -82 635 -95 q 566 -113 597 -100 q 153 637 235 66 q 160 1246 123 963 l 46 1239 q 49 1332 47 1286 l 159 1383 l 159 1384 l 54 1441 z "},"V":{"ha":2020,"x_min":229,"x_max":1992,"o":"m 650 1698 q 869 1717 755 1709 q 1146 602 1032 952 q 1403 1704 1313 1180 l 1992 1659 q 1749 809 1853 1176 l 1655 803 l 1729 737 q 1491 -140 1558 130 q 853 -140 1097 -170 q 688 311 764 94 q 745 393 735 379 q 653 409 692 402 q 387 1250 493 869 l 277 1238 q 229 1638 243 1457 q 562 1689 382 1668 l 620 1598 l 617 1622 q 650 1698 635 1666 z "},"W":{"ha":2132,"x_min":34,"x_max":2115,"o":"m 1414 -140 q 1193 -135 1248 -140 l 1006 309 l 840 -141 q 315 -150 616 -162 q 278 87 296 -32 q 334 143 323 132 q 266 168 296 157 q 34 1632 157 867 q 639 1697 188 1683 q 673 1511 655 1612 q 607 1468 610 1472 l 685 1440 q 763 940 721 1223 l 1015 1341 q 1287 941 1162 1115 l 1475 1694 q 2115 1656 1808 1692 q 2018 1267 2065 1457 q 1917 1251 1921 1253 l 1995 1175 q 1685 -142 1814 441 q 1488 -144 1535 -150 l 1467 20 l 1414 -140 z "},"X":{"ha":1813,"x_min":19,"x_max":1813,"o":"m 248 515 q 488 782 352 635 q 19 1309 259 1079 q 523 1741 231 1535 q 657 1565 596 1645 q 658 1470 656 1476 l 729 1472 q 916 1239 853 1312 q 1330 1718 1145 1537 q 1597 1511 1478 1613 l 1514 1363 l 1658 1458 q 1813 1306 1744 1381 q 1288 771 1513 978 l 1750 291 q 1251 -198 1514 19 q 1162 -81 1207 -140 q 1185 4 1181 -12 q 1107 -10 1142 -4 q 871 289 991 141 l 508 -203 q 20 229 286 -47 q 214 476 93 332 l 282 450 q 248 515 254 493 z "},"Y":{"ha":1823,"x_min":41,"x_max":1790,"o":"m 284 1038 q 41 1259 174 1139 l 483 1723 q 939 1235 738 1442 q 1350 1729 1107 1446 q 1472 1621 1413 1674 l 1396 1503 l 1514 1584 q 1790 1326 1663 1449 q 1231 705 1548 1050 q 1232 449 1232 574 q 1092 412 1158 414 l 1232 370 q 1232 -189 1233 76 q 629 -180 913 -192 q 630 713 624 239 q 351 972 515 825 q 342 1063 341 1048 q 284 1038 311 1049 z "},"Z":{"ha":1801,"x_min":47,"x_max":1755,"o":"m 490 1682 q 1730 1695 1072 1681 q 1735 1354 1736 1554 q 1634 1306 1638 1310 l 1734 1253 q 1731 1074 1733 1168 q 968 450 1242 713 q 1725 452 1310 448 q 1735 -132 1755 149 q 866 -145 1309 -142 q 831 -72 834 -75 l 792 -146 q 83 -144 442 -147 q 87 388 80 197 q 307 630 205 519 q 411 639 404 637 l 408 741 q 717 1061 597 945 q 54 1062 313 1053 q 85 1685 47 1428 q 404 1683 241 1683 l 423 1541 l 424 1541 l 490 1682 z "},"'":{"ha":749,"x_min":43,"x_max":753,"o":"m 73 1737 q 99 1786 84 1761 q 400 1914 204 1938 q 694 1617 667 1890 q 256 1094 753 1291 q 200 1139 142 1063 q 387 1415 374 1221 q 52 1558 73 1399 q 48 1647 43 1603 l 150 1694 l 150 1695 l 73 1737 z "},"-":{"ha":1112,"x_min":34,"x_max":1070,"o":"m 640 528 q 43 532 342 528 l 34 985 q 264 991 150 988 l 288 940 l 315 991 q 1060 996 699 998 q 1057 532 1070 789 q 726 528 891 529 l 683 569 l 640 528 z "},"&":{"ha":1750,"x_min":58,"x_max":1712,"o":"m 768 1088 q 812 1244 920 1168 q 708 1173 709 1265 q 768 1088 711 1116 m 539 411 q 638 313 542 317 q 882 433 757 300 q 673 583 768 507 q 539 411 514 513 m 1008 1680 q 1205 1535 1120 1638 q 1312 1279 1306 1393 q 1055 836 1335 964 q 1167 744 1107 781 q 1244 865 1190 787 q 1579 680 1388 814 l 1491 505 q 1712 317 1571 448 q 1429 22 1591 157 q 1255 170 1365 87 q 1086 37 1196 121 l 1026 73 l 1026 73 l 1055 12 q 1038 -1 1046 6 q 548 -145 787 -174 q 180 57 302 -129 l 213 162 l 213 163 l 137 137 q 90 284 108 203 q 213 743 58 569 q 370 904 301 850 q 253 1223 245 1038 l 334 1261 l 334 1261 l 262 1301 q 264 1312 262 1306 q 556 1653 304 1510 q 911 1704 761 1739 q 928 1701 920 1702 l 958 1653 l 958 1652 l 1008 1680 z "},"/":{"ha":1292,"x_min":34,"x_max":1258,"o":"m 539 1189 q 763 1786 652 1485 q 1257 1647 1006 1733 q 1258 1637 1255 1640 q 699 52 1081 1102 l 588 0 l 588 -1 l 665 -42 q 597 -227 631 -133 q 34 -79 277 -165 q 522 1142 283 521 l 602 1125 l 602 1126 l 539 1189 z "},"\\":{"ha":1292,"x_min":34,"x_max":1258,"o":"m 1131 296 q 1258 -79 1204 85 q 1257 -88 1255 -82 q 763 -227 1006 -175 q 539 370 652 74 l 602 433 l 602 433 l 522 416 q 34 1638 283 1038 q 597 1786 277 1723 q 665 1600 631 1691 l 588 1559 l 588 1558 l 699 1507 q 1101 382 941 841 l 1015 242 l 1016 242 l 1131 296 z "},"_":{"ha":1661,"x_min":46,"x_max":1617,"o":"m 47 -53 q 47 39 46 0 q 52 145 51 142 q 1199 157 438 161 l 1230 91 l 1266 157 q 1604 154 1427 156 q 1605 -264 1617 -71 q 56 -260 633 -265 q 50 -142 52 -196 l 136 -102 l 136 -101 l 47 -53 z "},"#":{"ha":1788,"x_min":46,"x_max":1722,"o":"m 813 848 q 804 711 808 779 q 939 713 873 712 q 951 848 945 783 q 813 848 880 848 m 315 1248 q 444 1249 401 1248 q 474 1579 461 1441 q 865 1590 659 1599 q 842 1251 853 1414 q 985 1253 916 1253 q 1015 1579 1002 1442 q 1235 1592 1121 1590 l 1247 1541 l 1266 1592 q 1405 1590 1334 1593 q 1382 1255 1394 1415 q 1722 1254 1570 1255 q 1677 845 1714 1036 q 1511 846 1592 846 l 1453 895 l 1435 846 q 1354 846 1394 846 q 1344 714 1349 779 q 1703 713 1543 714 q 1657 304 1694 496 q 1314 306 1477 305 q 1286 -28 1299 122 q 878 -34 1067 -47 q 906 309 892 146 q 773 309 838 309 q 746 -28 759 123 q 337 -34 527 -47 q 353 106 345 63 l 441 148 l 441 149 l 360 193 q 366 312 363 277 q 46 315 180 313 q 83 705 48 498 q 398 708 247 707 q 410 851 405 782 q 66 855 208 853 q 103 1245 68 1038 q 221 1247 184 1246 l 264 1190 l 264 1190 l 315 1248 z "},"$":{"ha":1544,"x_min":10,"x_max":1544,"o":"m 1381 870 q 1472 751 1440 821 q 1487 339 1544 516 q 1023 -122 1363 -13 q 1027 -372 1023 -250 q 814 -376 922 -378 l 778 -298 l 736 -375 q 597 -369 667 -373 l 594 -157 q 107 -26 354 -132 q 126 508 115 241 q 788 329 489 301 q 938 461 940 357 q 785 528 939 542 q 562 534 623 524 q 424 551 510 532 q 217 625 302 574 q 87 758 136 669 q 36 924 47 823 q 226 1509 10 1276 q 258 1539 241 1525 l 332 1509 l 333 1509 l 314 1582 q 555 1687 420 1655 l 551 1922 q 983 1929 768 1931 q 981 1697 981 1815 q 1388 1594 1168 1670 l 1377 1055 q 1033 1183 1204 1147 q 625 1071 641 1266 q 880 970 623 933 q 1259 939 1105 997 q 1347 895 1308 921 l 1312 838 l 1312 838 l 1381 870 z "},"%":{"ha":1629,"x_min":30,"x_max":1581,"o":"m 271 1251 q 330 1210 284 1211 q 394 1234 370 1207 q 406 1303 421 1268 q 347 1345 387 1347 q 276 1295 298 1342 q 271 1251 265 1272 m 1217 231 q 1276 191 1230 191 q 1340 215 1316 188 q 1352 283 1367 249 q 1293 326 1333 328 q 1222 276 1244 323 q 1217 231 1211 252 m 557 867 q 890 1786 702 1272 q 1177 1721 1042 1756 l 1153 1613 l 1154 1613 l 1246 1702 q 1453 1638 1356 1672 q 724 -227 1076 730 q 230 -88 480 -175 q 229 -79 232 -82 q 520 764 336 247 l 642 821 l 642 821 l 557 867 m 1581 282 l 1581 267 q 1241 -50 1551 -58 q 1030 58 1113 -49 q 983 195 990 121 q 1002 359 976 275 q 1093 499 1036 449 q 1472 522 1272 659 q 1568 378 1539 469 q 1577 336 1573 357 l 1527 309 l 1527 308 l 1581 282 m 526 1541 q 622 1397 593 1489 q 635 1286 637 1341 q 295 970 605 962 q 84 1077 167 970 q 37 1215 44 1141 q 56 1378 30 1294 q 146 1518 90 1468 q 526 1541 326 1678 z "},"(":{"ha":1350,"x_min":34,"x_max":1304,"o":"m 242 -119 q 181 -1 207 -61 q 71 747 34 352 q 143 1060 85 882 q 241 1265 184 1169 q 658 1703 422 1554 q 1292 1904 951 1878 l 1277 1497 q 1018 1414 1133 1468 l 963 1468 l 962 1468 l 949 1379 q 578 749 610 1184 q 1280 -277 564 -170 l 1304 -656 q 792 -585 983 -655 q 386 -307 562 -491 q 292 -195 334 -252 l 340 -106 l 340 -105 l 242 -119 z "},")":{"ha":1350,"x_min":64,"x_max":1334,"o":"m 772 881 q 91 1497 672 1376 l 76 1904 q 710 1703 416 1878 q 764 1666 738 1685 l 732 1614 l 733 1614 l 795 1643 q 1127 1265 979 1501 q 1225 1060 1184 1169 q 1297 747 1283 882 q 1187 -1 1334 352 q 982 -307 1118 -162 q 586 -581 810 -487 l 530 -479 l 530 -479 l 520 -603 q 64 -656 340 -655 l 87 -277 q 789 749 804 -170 q 786 790 788 770 l 867 828 l 867 829 l 772 881 z "},"+":{"ha":1126,"x_min":34,"x_max":1070,"o":"m 855 530 q 783 529 819 529 q 783 252 784 389 q 319 255 576 241 q 316 529 317 392 q 43 532 180 530 l 38 785 l 115 821 l 115 821 l 37 864 l 34 985 q 316 991 176 989 q 319 1268 317 1130 l 772 1278 q 779 996 776 1136 q 1060 996 921 997 q 1057 532 1070 789 q 901 530 979 530 l 870 604 l 869 604 l 855 530 z "},"=":{"ha":1158,"x_min":54,"x_max":1095,"o":"m 424 1358 q 1084 1362 762 1364 q 1081 897 1095 1154 q 68 897 574 890 l 58 1351 q 359 1357 210 1355 l 389 1294 l 424 1358 m 627 294 q 64 297 345 293 l 54 751 q 1080 762 587 764 q 1077 297 1090 554 q 758 294 918 295 l 683 349 l 683 348 l 627 294 z "},"°":{"ha":714,"x_min":43,"x_max":650,"o":"m 539 1707 q 635 1563 606 1654 q 648 1451 650 1507 q 308 1135 618 1127 q 97 1242 180 1136 q 50 1380 57 1306 q 69 1544 43 1459 q 159 1684 102 1634 q 539 1707 338 1843 m 283 1416 q 342 1375 297 1376 q 407 1400 382 1373 q 419 1468 434 1434 q 360 1511 399 1512 q 289 1461 311 1508 q 283 1416 278 1437 z "},"€":{"ha":1584,"x_min":20,"x_max":1529,"o":"m 1069 -165 q 919 -136 980 -153 q 534 71 701 -66 q 340 298 406 178 q 306 368 321 333 q 114 369 199 368 l 90 453 l 156 508 l 67 531 l 20 692 q 230 695 119 694 q 230 795 227 745 q 112 795 167 795 l 20 1119 q 322 1123 159 1122 q 396 1239 355 1183 q 522 1375 456 1313 l 604 1337 l 604 1337 l 559 1409 q 791 1564 668 1502 q 1518 1716 1070 1694 l 1512 1600 l 1412 1546 l 1412 1545 l 1506 1501 l 1493 1260 q 845 1125 1033 1291 q 1364 1123 1086 1125 q 1360 795 1373 977 q 717 795 998 795 q 726 698 719 744 q 1364 696 1016 699 q 1360 369 1373 550 q 889 368 1104 368 q 1500 212 1084 191 l 1529 -185 q 1137 -172 1297 -186 l 1104 -100 l 1069 -165 z "},"*":{"ha":1109,"x_min":52,"x_max":1053,"o":"m 699 1051 q 698 829 699 939 q 406 832 568 819 q 404 1056 404 944 q 218 925 311 989 q 52 1166 134 1025 q 292 1337 172 1252 q 52 1509 172 1423 q 218 1750 134 1649 q 404 1619 311 1685 q 406 1845 404 1732 l 691 1855 q 694 1621 693 1737 q 880 1750 787 1685 l 1053 1522 q 798 1337 924 1428 q 1053 1153 924 1246 l 880 925 q 699 1051 789 988 z "},"`":{"ha":659,"x_min":23,"x_max":645,"o":"m 154 1693 l 23 1911 q 517 2202 341 2102 q 645 1976 580 2104 q 154 1693 300 1775 z "},"~":{"ha":917,"x_min":-22,"x_max":939,"o":"m 880 2185 q 811 1804 939 1906 q 596 1752 728 1744 q 371 1881 449 1763 q 232 1946 299 2014 q 277 1771 182 1868 q 75 1760 182 1758 q 68 2088 -22 1920 q 287 2203 136 2199 q 511 2090 453 2200 q 648 1965 571 1957 q 697 2021 684 1971 q 648 2184 702 2104 q 880 2185 806 2188 z "},"¨":{"ha":1012,"x_min":36,"x_max":981,"o":"m 52 1893 q 66 2027 36 1956 q 281 2178 134 2165 q 456 2049 397 2180 q 420 1845 499 1947 q 227 1772 347 1765 q 52 1893 91 1775 m 534 1893 q 549 2027 518 1956 q 763 2178 616 2165 q 939 2049 880 2180 q 902 1845 981 1947 q 709 1772 829 1765 q 534 1893 573 1775 z "},"´":{"ha":680,"x_min":30,"x_max":652,"o":"m 30 1976 q 158 2202 95 2104 q 652 1911 333 2102 l 520 1693 q 30 1976 375 1775 z "},"¸":{"ha":881,"x_min":32,"x_max":848,"o":"m 626 -201 q 835 -420 819 -279 q 589 -743 848 -636 q 367 -762 485 -773 q 32 -500 161 -732 q 227 -386 73 -471 q 507 -494 371 -610 q 437 -358 581 -413 q 233 -326 354 -328 q 232 -1 229 -179 q 499 2 353 4 q 498 -161 494 -69 q 626 -201 535 -170 z "},"ˆ":{"ha":926,"x_min":49,"x_max":891,"o":"m 470 1904 q 161 1699 260 1764 l 49 1914 q 470 2200 317 2101 q 891 1914 623 2100 l 779 1699 q 470 1904 680 1764 z "},"˚":{"ha":610,"x_min":-28,"x_max":578,"o":"m 107 2109 q 226 2185 149 2157 q 364 2201 297 2207 q 481 2162 427 2195 q 571 1983 571 2091 q 304 1695 578 1721 q 210 1707 257 1694 q 87 1788 132 1731 q 107 2109 -28 1957 m 296 1999 q 254 1939 256 1980 q 290 1889 252 1906 q 347 1900 319 1876 q 368 1954 370 1920 q 334 2004 368 1992 q 296 1999 316 2009 z "},"Ç":{"ha":1366,"x_min":-6,"x_max":1329,"o":"m 711 -85 q 376 51 515 -56 l 409 142 l 319 93 q 77 507 142 281 q 125 1125 -6 854 q 553 1514 258 1385 l 612 1479 l 612 1480 l 646 1550 q 1293 1640 913 1640 l 1302 976 q 1023 1006 1153 1006 l 991 1109 l 958 1000 q 743 878 803 979 q 795 576 629 688 q 1310 571 962 465 l 1293 -36 q 978 -91 1124 -79 q 979 -161 978 -124 q 1107 -201 1017 -170 q 1316 -420 1301 -279 q 1071 -743 1329 -636 q 848 -762 966 -773 q 513 -500 643 -732 q 709 -386 555 -471 q 988 -494 852 -610 q 919 -358 1063 -413 q 715 -326 836 -328 q 711 -85 711 -196 z "},"Œ":{"ha":2610,"x_min":32,"x_max":2556,"o":"m 659 642 q 880 490 709 493 q 1121 581 1030 481 q 1167 838 1221 709 q 947 999 1093 1002 q 678 810 762 984 q 659 642 640 720 m 1700 1215 q 1744 1097 1725 1159 q 1783 777 1787 937 q 799 -137 1695 -161 q 433 -44 596 -136 q 434 39 433 24 q 358 5 391 20 q 188 173 266 73 q 53 570 74 356 q 108 1042 32 801 q 370 1449 205 1305 q 386 1463 378 1456 l 486 1447 l 486 1448 q 491 1544 489 1505 q 1468 1516 954 1864 q 1653 1303 1579 1428 q 1590 1208 1592 1213 l 1700 1215 m 2533 55 q 2556 -124 2540 -22 q 1777 -153 2191 -138 l 1737 -67 l 1708 -155 q 1234 -174 1465 -163 q 1233 1201 1240 564 l 1354 1249 l 1232 1283 q 1227 1663 1231 1489 q 1914 1669 1666 1665 l 1951 1603 l 2044 1670 q 2521 1679 2407 1674 q 2498 1120 2494 1350 l 2112 1111 l 2085 1166 l 2044 1109 l 1809 1105 l 1815 955 l 2296 976 l 2314 545 q 1836 513 2129 526 l 1840 380 q 2523 411 2147 383 q 2528 136 2525 343 q 2425 87 2490 120 q 2533 55 2483 70 z "},"À":{"ha":1674,"x_min":19,"x_max":1691,"o":"m 862 919 q 794 654 825 817 q 913 662 856 656 q 862 919 899 798 m 104 -116 q 19 -109 62 -112 l 332 806 l 430 828 l 359 899 l 463 1265 l 309 1275 l 410 1681 q 958 1674 696 1668 q 997 1592 994 1596 l 1041 1676 q 1208 1684 1126 1679 l 1503 570 l 1461 513 l 1529 487 l 1691 -135 q 1109 -185 1457 -133 l 1024 197 q 709 199 848 212 q 595 -177 628 -44 q 163 -122 389 -144 q 182 58 176 -29 q 104 -116 146 -8 m 657 1691 l 526 1909 q 1020 2200 844 2100 q 1148 1974 1083 2102 q 657 1691 803 1773 z "},"Á":{"ha":1674,"x_min":19,"x_max":1691,"o":"m 862 919 q 794 654 825 817 q 913 662 856 656 q 862 919 899 798 m 104 -116 q 19 -109 62 -112 l 332 806 l 430 828 l 359 899 l 463 1265 l 309 1275 l 410 1681 q 958 1674 696 1668 q 997 1592 994 1596 l 1041 1676 q 1208 1684 1126 1679 l 1503 570 l 1461 513 l 1529 487 l 1691 -135 q 1109 -185 1457 -133 l 1024 197 q 709 199 848 212 q 595 -177 628 -44 q 163 -122 389 -144 q 182 58 176 -29 q 104 -116 146 -8 m 526 1980 q 654 2206 591 2108 q 1148 1915 829 2106 l 1017 1697 q 526 1980 871 1779 z "},"Â":{"ha":1674,"x_min":19,"x_max":1691,"o":"m 862 919 q 794 654 825 817 q 913 662 856 656 q 862 919 899 798 m 104 -116 q 19 -109 62 -112 l 332 806 l 430 828 l 359 899 l 463 1265 l 309 1275 l 410 1681 q 958 1674 696 1668 q 997 1592 994 1596 l 1041 1676 q 1208 1684 1126 1679 l 1503 570 l 1461 513 l 1529 487 l 1691 -135 q 1109 -185 1457 -133 l 1024 197 q 709 199 848 212 q 595 -177 628 -44 q 163 -122 389 -144 q 182 58 176 -29 q 104 -116 146 -8 m 837 1908 q 528 1703 627 1768 l 416 1918 q 837 2204 684 2105 q 1258 1918 989 2104 l 1146 1703 q 837 1908 1046 1768 z "},"Ã":{"ha":1674,"x_min":19,"x_max":1643,"o":"m 1254 2184 q 1180 1774 1317 1884 q 949 1719 1091 1710 q 707 1857 791 1730 q 557 1927 629 2001 q 606 1739 503 1844 q 389 1727 504 1725 q 382 2080 284 1899 q 616 2203 454 2199 q 857 2083 795 2201 q 1004 1948 922 1939 q 1058 2007 1044 1954 q 1005 2183 1063 2098 q 1254 2184 1174 2188 m 838 941 q 772 684 802 842 q 888 691 831 686 q 838 941 874 824 m 1012 1676 q 1174 1684 1094 1679 l 1461 602 l 1420 547 l 1486 522 l 1643 -83 q 1078 -132 1416 -81 l 995 240 q 690 241 825 254 q 578 -123 610 5 q 19 -57 317 -82 l 323 831 l 418 852 l 350 921 l 450 1277 l 300 1286 l 399 1681 q 930 1674 676 1669 q 968 1594 966 1598 l 1012 1676 z "},"Ä":{"ha":1674,"x_min":19,"x_max":1691,"o":"m 862 919 q 794 654 825 817 q 913 662 856 656 q 862 919 899 798 m 104 -116 q 19 -109 62 -112 l 332 806 l 430 828 l 359 899 l 463 1265 l 309 1275 l 410 1681 q 958 1674 696 1668 q 997 1592 994 1596 l 1041 1676 q 1208 1684 1126 1679 l 1503 570 l 1461 513 l 1529 487 l 1691 -135 q 1109 -185 1457 -133 l 1024 197 q 709 199 848 212 q 595 -177 628 -44 q 163 -122 389 -144 q 182 58 176 -29 q 104 -116 146 -8 m 380 1883 q 395 2017 364 1946 q 609 2167 462 2155 q 785 2039 726 2170 q 748 1834 827 1937 q 555 1762 675 1754 q 380 1883 419 1765 m 862 1883 q 877 2017 846 1946 q 1091 2167 944 2155 q 1267 2039 1208 2170 q 1230 1834 1310 1937 q 1038 1762 1158 1754 q 862 1883 901 1765 z "},"Å":{"ha":1674,"x_min":19,"x_max":1691,"o":"m 862 919 q 794 654 825 817 q 913 662 856 656 q 862 919 899 798 m 104 -116 q 19 -109 62 -112 l 332 806 l 430 828 l 359 899 l 463 1265 l 309 1275 l 410 1681 q 958 1674 696 1668 q 997 1592 994 1596 l 1041 1676 q 1208 1684 1126 1679 l 1503 570 l 1461 513 l 1529 487 l 1691 -135 q 1109 -185 1457 -133 l 1024 197 q 709 199 848 212 q 595 -177 628 -44 q 163 -122 389 -144 q 182 58 176 -29 q 104 -116 146 -8 m 625 2089 q 744 2165 667 2138 q 882 2182 815 2188 q 999 2142 945 2176 q 1089 1963 1089 2072 q 822 1676 1097 1702 q 728 1687 775 1674 q 606 1768 650 1711 q 625 2089 490 1938 m 814 1980 q 772 1919 774 1961 q 808 1870 770 1886 q 865 1880 837 1857 q 886 1934 888 1900 q 852 1984 886 1973 q 814 1980 834 1989 z "},"Æ":{"ha":2589,"x_min":19,"x_max":2538,"o":"m 862 919 q 794 654 825 817 q 913 662 856 656 q 862 919 899 798 m 104 -116 q 19 -109 62 -112 l 332 806 l 430 828 l 359 899 l 463 1265 l 309 1275 l 410 1681 q 958 1674 696 1668 q 997 1592 994 1596 l 1041 1676 q 1208 1684 1126 1679 l 1503 570 l 1461 513 l 1529 487 l 1691 -135 q 1109 -185 1457 -133 l 1024 197 q 709 199 848 212 q 595 -177 628 -44 q 163 -122 389 -144 q 182 58 176 -29 q 104 -116 146 -8 m 2515 76 q 2538 -103 2523 -1 q 1760 -132 2174 -117 l 1719 -46 l 1690 -134 q 1217 -153 1447 -142 q 1215 1222 1223 585 l 1336 1270 l 1215 1304 q 1210 1684 1213 1510 q 1896 1690 1649 1686 l 1933 1624 l 2026 1691 q 2503 1700 2390 1695 q 2481 1141 2477 1371 l 2095 1132 l 2068 1187 l 2026 1131 l 1791 1126 l 1798 976 l 2279 997 l 2296 566 q 1819 534 2112 547 l 1822 401 q 2505 432 2129 404 q 2511 157 2508 364 q 2407 109 2472 141 q 2515 76 2466 91 z "},"È":{"ha":1421,"x_min":43,"x_max":1372,"o":"m 1349 55 q 1372 -124 1356 -22 q 593 -153 1007 -138 l 553 -67 l 524 -155 q 50 -174 281 -163 q 49 1201 56 564 l 170 1249 l 48 1283 q 43 1663 47 1489 q 730 1669 482 1665 l 767 1603 l 860 1670 q 1337 1679 1223 1674 q 1314 1120 1310 1350 l 928 1111 l 901 1166 l 860 1109 l 625 1105 l 631 955 l 1112 976 l 1130 545 q 652 513 945 526 l 656 380 q 1339 411 963 383 q 1344 136 1341 343 q 1241 87 1305 120 q 1349 55 1299 70 m 487 1691 l 356 1909 q 850 2200 674 2100 q 978 1974 913 2102 q 487 1691 633 1773 z "},"É":{"ha":1421,"x_min":43,"x_max":1372,"o":"m 1349 55 q 1372 -124 1356 -22 q 593 -153 1007 -138 l 553 -67 l 524 -155 q 50 -174 281 -163 q 49 1201 56 564 l 170 1249 l 48 1283 q 43 1663 47 1489 q 730 1669 482 1665 l 767 1603 l 860 1670 q 1337 1679 1223 1674 q 1314 1120 1310 1350 l 928 1111 l 901 1166 l 860 1109 l 625 1105 l 631 955 l 1112 976 l 1130 545 q 652 513 945 526 l 656 380 q 1339 411 963 383 q 1344 136 1341 343 q 1241 87 1305 120 q 1349 55 1299 70 m 421 1980 q 549 2205 486 2108 q 1043 1914 724 2106 l 911 1697 q 421 1980 766 1778 z "},"Ê":{"ha":1421,"x_min":43,"x_max":1372,"o":"m 1349 55 q 1372 -124 1356 -22 q 593 -153 1007 -138 l 553 -67 l 524 -155 q 50 -174 281 -163 q 49 1201 56 564 l 170 1249 l 48 1283 q 43 1663 47 1489 q 730 1669 482 1665 l 767 1603 l 860 1670 q 1337 1679 1223 1674 q 1314 1120 1310 1350 l 928 1111 l 901 1166 l 860 1109 l 625 1105 l 631 955 l 1112 976 l 1130 545 q 652 513 945 526 l 656 380 q 1339 411 963 383 q 1344 136 1341 343 q 1241 87 1305 120 q 1349 55 1299 70 m 678 1909 q 369 1704 469 1769 l 257 1919 q 678 2205 526 2106 q 1099 1919 831 2105 l 987 1704 q 678 1909 888 1769 z "},"Ë":{"ha":1421,"x_min":43,"x_max":1372,"o":"m 1349 55 q 1372 -124 1356 -22 q 593 -153 1007 -138 l 553 -67 l 524 -155 q 50 -174 281 -163 q 49 1201 56 564 l 170 1249 l 48 1283 q 43 1663 47 1489 q 730 1669 482 1665 l 767 1603 l 860 1670 q 1337 1679 1223 1674 q 1314 1120 1310 1350 l 928 1111 l 901 1166 l 860 1109 l 625 1105 l 631 955 l 1112 976 l 1130 545 q 652 513 945 526 l 656 380 q 1339 411 963 383 q 1344 136 1341 343 q 1241 87 1305 120 q 1349 55 1299 70 m 248 1900 q 263 2033 233 1962 q 477 2184 330 2171 q 653 2056 594 2186 q 616 1851 696 1953 q 424 1778 544 1771 q 248 1900 288 1781 m 730 1900 q 745 2033 715 1962 q 960 2184 812 2171 q 1135 2056 1076 2186 q 1099 1851 1178 1953 q 906 1778 1026 1771 q 730 1900 770 1781 z "},"Ì":{"ha":884,"x_min":87,"x_max":801,"o":"m 189 1306 q 94 1350 184 1310 q 87 1657 90 1502 q 591 1666 340 1676 l 616 1531 l 644 1664 q 801 1653 723 1659 q 777 199 801 745 l 699 157 q 772 124 703 154 q 755 -151 765 -28 q 576 -157 746 -153 q 135 -153 406 -161 q 96 1255 115 504 l 189 1306 m 283 1702 l 152 1920 q 646 2211 470 2111 q 774 1985 709 2113 q 283 1702 429 1784 z "},"Í":{"ha":884,"x_min":87,"x_max":801,"o":"m 189 1306 q 94 1350 184 1310 q 87 1657 90 1502 q 591 1666 340 1676 l 616 1531 l 644 1664 q 801 1653 723 1659 q 777 199 801 745 l 699 157 q 772 124 703 154 q 755 -151 765 -28 q 576 -157 746 -153 q 135 -153 406 -161 q 96 1255 115 504 l 189 1306 m 142 1980 q 270 2206 207 2108 q 764 1915 445 2106 l 632 1697 q 142 1980 487 1779 z "},"Î":{"ha":884,"x_min":33,"x_max":875,"o":"m 189 1306 q 94 1350 184 1310 q 87 1657 90 1502 q 591 1666 340 1676 l 616 1531 l 644 1664 q 801 1653 723 1659 q 777 199 801 745 l 699 157 q 772 124 703 154 q 755 -151 765 -28 q 576 -157 746 -153 q 135 -153 406 -161 q 96 1255 115 504 l 189 1306 m 454 1914 q 144 1708 244 1773 l 33 1923 q 454 2209 301 2110 q 875 1923 606 2110 l 763 1708 q 454 1914 663 1773 z "},"Ï":{"ha":884,"x_min":-24,"x_max":921,"o":"m 189 1306 q 94 1350 184 1310 q 87 1657 90 1502 q 591 1666 340 1676 l 616 1531 l 644 1664 q 801 1653 723 1659 q 777 199 801 745 l 699 157 q 772 124 703 154 q 755 -151 765 -28 q 576 -157 746 -153 q 135 -153 406 -161 q 96 1255 115 504 l 189 1306 m -9 1883 q 6 2017 -24 1946 q 220 2167 73 2155 q 396 2039 337 2170 q 359 1834 439 1937 q 167 1762 287 1754 q -9 1883 31 1765 m 473 1883 q 488 2017 458 1946 q 703 2167 555 2155 q 878 2039 819 2170 q 842 1834 921 1937 q 649 1762 769 1754 q 473 1883 513 1765 z "},"Ñ":{"ha":1787,"x_min":43,"x_max":1730,"o":"m 1348 2187 q 1274 1771 1413 1883 q 1039 1715 1183 1706 q 793 1855 879 1726 q 642 1926 715 2000 q 691 1735 587 1841 q 470 1723 588 1722 q 464 2081 364 1898 q 702 2206 538 2202 q 946 2083 883 2203 q 1095 1947 1012 1938 q 1149 2008 1135 1953 q 1096 2186 1154 2099 q 1348 2187 1268 2190 m 526 1686 l 648 1694 q 1135 1061 810 1409 q 1113 1655 1126 1232 q 1730 1674 1442 1667 q 1729 1563 1730 1618 q 1616 1509 1621 1512 l 1729 1449 q 1710 -149 1724 566 q 1298 -160 1546 -149 q 1036 183 1180 6 q 1038 325 1038 303 q 951 286 989 302 q 713 559 840 420 l 720 -160 q 156 -166 441 -149 q 161 1161 172 374 l 43 1159 l 58 1653 l 434 1679 q 475 1590 473 1595 l 526 1686 z "},"Ò":{"ha":1847,"x_min":32,"x_max":1787,"o":"m 659 642 q 880 490 709 493 q 1121 581 1030 481 q 1167 838 1221 709 q 947 999 1093 1002 q 678 810 762 984 q 659 642 640 720 m 1700 1215 q 1744 1097 1725 1159 q 1783 777 1787 937 q 799 -137 1695 -161 q 433 -44 596 -136 q 434 39 433 24 q 358 5 391 20 q 188 173 266 73 q 53 570 74 356 q 108 1042 32 801 q 370 1449 205 1305 q 386 1463 378 1456 l 486 1447 l 486 1448 q 491 1544 489 1505 q 1468 1516 954 1864 q 1653 1303 1579 1428 q 1590 1208 1592 1213 l 1700 1215 m 684 1702 l 553 1920 q 1046 2211 871 2111 q 1175 1985 1109 2113 q 684 1702 829 1784 z "},"Ó":{"ha":1847,"x_min":32,"x_max":1787,"o":"m 659 642 q 880 490 709 493 q 1121 581 1030 481 q 1167 838 1221 709 q 947 999 1093 1002 q 678 810 762 984 q 659 642 640 720 m 1700 1215 q 1744 1097 1725 1159 q 1783 777 1787 937 q 799 -137 1695 -161 q 433 -44 596 -136 q 434 39 433 24 q 358 5 391 20 q 188 173 266 73 q 53 570 74 356 q 108 1042 32 801 q 370 1449 205 1305 q 386 1463 378 1456 l 486 1447 l 486 1448 q 491 1544 489 1505 q 1468 1516 954 1864 q 1653 1303 1579 1428 q 1590 1208 1592 1213 l 1700 1215 m 650 1980 q 778 2205 715 2108 q 1272 1914 953 2106 l 1140 1697 q 650 1980 995 1778 z "},"Ô":{"ha":1847,"x_min":32,"x_max":1787,"o":"m 659 642 q 880 490 709 493 q 1121 581 1030 481 q 1167 838 1221 709 q 947 999 1093 1002 q 678 810 762 984 q 659 642 640 720 m 1700 1215 q 1744 1097 1725 1159 q 1783 777 1787 937 q 799 -137 1695 -161 q 433 -44 596 -136 q 434 39 433 24 q 358 5 391 20 q 188 173 266 73 q 53 570 74 356 q 108 1042 32 801 q 370 1449 205 1305 q 386 1463 378 1456 l 486 1447 l 486 1448 q 491 1544 489 1505 q 1468 1516 954 1864 q 1653 1303 1579 1428 q 1590 1208 1592 1213 l 1700 1215 m 935 1904 q 625 1698 725 1763 l 513 1913 q 935 2199 782 2100 q 1356 1913 1087 2100 l 1244 1698 q 935 1904 1144 1763 z "},"Õ":{"ha":1847,"x_min":32,"x_max":1787,"o":"m 1373 2180 q 1295 1752 1438 1866 q 1055 1694 1202 1685 q 802 1838 889 1706 q 646 1911 721 1988 q 696 1714 589 1824 q 469 1702 590 1701 q 463 2070 361 1882 q 707 2199 538 2195 q 958 2073 894 2197 q 1112 1933 1026 1923 q 1168 1995 1153 1939 q 1113 2178 1173 2089 q 1373 2180 1289 2183 m 659 642 q 880 490 709 493 q 1121 581 1030 481 q 1167 838 1221 709 q 947 999 1093 1002 q 678 810 762 984 q 659 642 640 720 m 1700 1215 q 1744 1097 1725 1159 q 1783 777 1787 937 q 799 -137 1695 -161 q 433 -44 596 -136 q 434 39 433 24 q 358 5 391 20 q 188 173 266 73 q 53 570 74 356 q 108 1042 32 801 q 370 1449 205 1305 q 386 1463 378 1456 l 486 1447 l 486 1448 q 491 1544 489 1505 q 1468 1516 954 1864 q 1653 1303 1579 1428 q 1590 1208 1592 1213 l 1700 1215 z "},"Ö":{"ha":1847,"x_min":32,"x_max":1787,"o":"m 659 642 q 880 490 709 493 q 1121 581 1030 481 q 1167 838 1221 709 q 947 999 1093 1002 q 678 810 762 984 q 659 642 640 720 m 1700 1215 q 1744 1097 1725 1159 q 1783 777 1787 937 q 799 -137 1695 -161 q 433 -44 596 -136 q 434 39 433 24 q 358 5 391 20 q 188 173 266 73 q 53 570 74 356 q 108 1042 32 801 q 370 1449 205 1305 q 386 1463 378 1456 l 486 1447 l 486 1448 q 491 1544 489 1505 q 1468 1516 954 1864 q 1653 1303 1579 1428 q 1590 1208 1592 1213 l 1700 1215 m 515 1894 q 530 2028 500 1957 q 745 2178 597 2166 q 920 2050 861 2181 q 884 1845 963 1948 q 691 1773 811 1765 q 515 1894 555 1775 m 998 1894 q 1013 2028 982 1957 q 1227 2178 1080 2166 q 1402 2050 1343 2181 q 1366 1845 1445 1948 q 1173 1773 1293 1765 q 998 1894 1037 1775 z "},"Ÿ":{"ha":1823,"x_min":41,"x_max":1790,"o":"m 284 1038 q 41 1259 174 1139 l 483 1723 q 939 1235 738 1442 q 1350 1729 1107 1446 q 1472 1621 1413 1674 l 1396 1503 l 1514 1584 q 1790 1326 1663 1449 q 1231 705 1548 1050 q 1232 449 1232 574 q 1092 412 1158 414 l 1232 370 q 1232 -189 1233 76 q 629 -180 913 -192 q 630 713 624 239 q 351 972 515 825 q 342 1063 341 1048 q 284 1038 311 1049 m 481 1900 q 496 2033 465 1962 q 710 2184 563 2171 q 886 2056 827 2186 q 849 1851 928 1953 q 656 1778 777 1771 q 481 1900 520 1781 m 963 1900 q 978 2033 947 1962 q 1192 2184 1045 2171 q 1368 2056 1309 2186 q 1331 1851 1411 1953 q 1139 1778 1259 1771 q 963 1900 1002 1781 z "},"Ø":{"ha":1847,"x_min":32,"x_max":1787,"o":"m 659 642 q 880 490 709 493 q 1121 581 1030 481 q 1167 838 1221 709 q 947 999 1093 1002 q 678 810 762 984 q 659 642 640 720 m 1700 1215 q 1744 1097 1725 1159 q 1783 777 1787 937 q 799 -137 1695 -161 q 433 -44 596 -136 q 434 39 433 24 q 358 5 391 20 q 188 173 266 73 q 53 570 74 356 q 108 1042 32 801 q 370 1449 205 1305 q 386 1463 378 1456 l 486 1447 l 486 1448 q 491 1544 489 1505 q 1468 1516 954 1864 q 1653 1303 1579 1428 q 1590 1208 1592 1213 l 1700 1215 m 817 1189 q 1040 1786 930 1485 q 1534 1647 1284 1733 q 1535 1637 1532 1640 q 976 52 1358 1102 l 865 0 l 865 -1 l 942 -42 q 874 -227 909 -133 q 311 -79 554 -165 q 799 1142 560 521 l 879 1125 l 879 1126 l 817 1189 z "},"Ù":{"ha":1785,"x_min":46,"x_max":1709,"o":"m 54 1441 q 68 1639 60 1542 q 831 1672 512 1690 q 772 1192 804 1556 q 800 649 741 827 q 924 543 843 549 q 1052 643 1023 545 q 1067 1674 1126 988 l 1200 1672 l 1232 1626 l 1232 1627 q 1255 1671 1244 1651 l 1657 1664 q 1708 1086 1701 1355 q 1632 1021 1636 1026 l 1709 946 q 1699 720 1708 829 q 1137 -138 1635 48 q 662 -155 909 -212 q 634 -145 648 -151 q 635 -82 635 -95 q 566 -113 597 -100 q 153 637 235 66 q 160 1246 123 963 l 46 1239 q 49 1332 47 1286 l 159 1383 l 159 1384 l 54 1441 m 685 1702 l 554 1920 q 1048 2211 872 2111 q 1176 1985 1111 2113 q 685 1702 831 1784 z "},"Ú":{"ha":1785,"x_min":46,"x_max":1709,"o":"m 54 1441 q 68 1639 60 1542 q 831 1672 512 1690 q 772 1192 804 1556 q 800 649 741 827 q 924 543 843 549 q 1052 643 1023 545 q 1067 1674 1126 988 l 1200 1672 l 1232 1626 l 1232 1627 q 1255 1671 1244 1651 l 1657 1664 q 1708 1086 1701 1355 q 1632 1021 1636 1026 l 1709 946 q 1699 720 1708 829 q 1137 -138 1635 48 q 662 -155 909 -212 q 634 -145 648 -151 q 635 -82 635 -95 q 566 -113 597 -100 q 153 637 235 66 q 160 1246 123 963 l 46 1239 q 49 1332 47 1286 l 159 1383 l 159 1384 l 54 1441 m 624 1974 q 752 2200 689 2102 q 1246 1909 927 2100 l 1114 1691 q 624 1974 969 1773 z "},"Û":{"ha":1785,"x_min":46,"x_max":1709,"o":"m 54 1441 q 68 1639 60 1542 q 831 1672 512 1690 q 772 1192 804 1556 q 800 649 741 827 q 924 543 843 549 q 1052 643 1023 545 q 1067 1674 1126 988 l 1200 1672 l 1232 1626 l 1232 1627 q 1255 1671 1244 1651 l 1657 1664 q 1708 1086 1701 1355 q 1632 1021 1636 1026 l 1709 946 q 1699 720 1708 829 q 1137 -138 1635 48 q 662 -155 909 -212 q 634 -145 648 -151 q 635 -82 635 -95 q 566 -113 597 -100 q 153 637 235 66 q 160 1246 123 963 l 46 1239 q 49 1332 47 1286 l 159 1383 l 159 1384 l 54 1441 m 947 1909 q 637 1704 737 1769 l 526 1919 q 947 2205 794 2106 q 1368 1919 1099 2105 l 1256 1704 q 947 1909 1156 1769 z "},"Ü":{"ha":1785,"x_min":46,"x_max":1709,"o":"m 54 1441 q 68 1639 60 1542 q 831 1672 512 1690 q 772 1192 804 1556 q 800 649 741 827 q 924 543 843 549 q 1052 643 1023 545 q 1067 1674 1126 988 l 1200 1672 l 1232 1626 l 1232 1627 q 1255 1671 1244 1651 l 1657 1664 q 1708 1086 1701 1355 q 1632 1021 1636 1026 l 1709 946 q 1699 720 1708 829 q 1137 -138 1635 48 q 662 -155 909 -212 q 634 -145 648 -151 q 635 -82 635 -95 q 566 -113 597 -100 q 153 637 235 66 q 160 1246 123 963 l 46 1239 q 49 1332 47 1286 l 159 1383 l 159 1384 l 54 1441 m 473 1883 q 488 2017 458 1946 q 703 2167 555 2155 q 878 2039 819 2170 q 842 1834 921 1937 q 649 1762 769 1754 q 473 1883 513 1765 m 956 1883 q 970 2017 940 1946 q 1185 2167 1038 2155 q 1360 2039 1301 2170 q 1324 1834 1403 1937 q 1131 1762 1251 1754 q 956 1883 995 1765 z "},"Ý":{"ha":1823,"x_min":41,"x_max":1790,"o":"m 284 1038 q 41 1259 174 1139 l 483 1723 q 939 1235 738 1442 q 1350 1729 1107 1446 q 1472 1621 1413 1674 l 1396 1503 l 1514 1584 q 1790 1326 1663 1449 q 1231 705 1548 1050 q 1232 449 1232 574 q 1092 412 1158 414 l 1232 370 q 1232 -189 1233 76 q 629 -180 913 -192 q 630 713 624 239 q 351 972 515 825 q 342 1063 341 1048 q 284 1038 311 1049 m 611 1985 q 739 2211 676 2113 q 1233 1920 914 2111 l 1101 1702 q 611 1985 956 1784 z "}}}
